<svg width="1920" height="950" viewBox="0 0 1920 950" fill="none" xmlns="http://www.w3.org/2000/svg">
<g style="mix-blend-mode:multiply">
<path d="M1576.25 346.507C1648.74 346.507 1707.51 287.743 1707.51 215.254C1707.51 142.764 1648.74 84 1576.25 84C1503.76 84 1445 142.764 1445 215.254C1445 287.743 1503.76 346.507 1576.25 346.507Z" fill="#BDBDB8"/>
</g>
<g style="mix-blend-mode:multiply">
<path d="M1540.87 735.874C1560.36 716.383 1560.36 684.782 1540.87 665.291C1521.38 645.8 1489.78 645.8 1470.29 665.291C1450.8 684.782 1450.8 716.383 1470.29 735.874C1489.78 755.364 1521.38 755.365 1540.87 735.874Z" fill="#BDBDB8"/>
</g>
<path d="M1747.87 586.64C1802.56 586.64 1846.89 542.305 1846.89 487.616C1846.89 432.927 1802.56 388.593 1747.87 388.593C1693.18 388.593 1648.84 432.927 1648.84 487.616C1648.84 542.305 1693.18 586.64 1747.87 586.64Z" fill="#FFB300"/>
</svg>
