<svg width="1920" height="950" viewBox="0 0 1920 950" fill="none" xmlns="http://www.w3.org/2000/svg">
<g clip-path="url(#clip0_48_82)">
<path d="M440.987 660.459C470.806 607.74 486.435 548.185 486.347 487.616C486.347 293.39 328.896 135.939 134.673 135.939C-59.5489 135.939 -217 293.39 -217 487.616C-217.088 548.185 -201.459 607.74 -171.64 660.459H440.987Z" fill="#FFB300"/>
<g style="mix-blend-mode:multiply">
<path d="M139.215 195.215C164.844 169.587 164.844 128.034 139.215 102.405C113.587 76.7763 72.034 76.7763 46.4052 102.405C20.7763 128.034 20.7763 169.587 46.4052 195.215C72.034 220.844 113.587 220.844 139.215 195.215Z" fill="#BDBDB8"/>
</g>
<path d="M863.396 1011.62C786.605 971.648 717.698 938.919 656.881 911.411C604.132 887.546 556.159 867.016 514.051 848.994C498.803 842.463 484.075 836.166 470.018 830.087C456.551 824.269 443.677 818.643 431.512 813.216C419.833 807.999 408.797 802.959 398.511 798.092C388.62 793.406 379.394 788.877 370.954 784.493C361.756 779.721 353.703 775.233 346.702 771.001C339.964 766.925 334.182 763.072 329.282 759.412C325.096 756.343 321.145 752.964 317.463 749.304C314.741 746.615 312.35 743.611 310.338 740.357C308.348 737.015 307.218 733.813 306.905 730.73C306.601 727.776 307.072 724.794 308.269 722.076C309.606 719.145 311.479 716.489 313.791 714.246C316.571 711.517 319.641 709.101 322.948 707.043C327.353 704.279 331.95 701.834 336.704 699.728C341.789 697.431 347.489 695.192 353.802 693.011C359.926 690.893 366.627 688.816 373.904 686.78C380.968 684.802 388.568 682.858 396.706 680.949C420.311 675.398 433.168 670.461 438.629 665.989C440.978 664.065 441.963 662.223 441.843 660.451H456.196C456.474 661.479 456.397 662.571 455.978 663.55C455.416 664.787 454.59 665.887 453.559 666.772C451.89 668.238 450.05 669.496 448.078 670.518C445.259 672.012 442.346 673.322 439.358 674.442C435.831 675.797 431.726 677.178 426.995 678.583C422.174 680.023 416.697 681.493 410.565 682.993C395.857 686.598 382.999 690.299 372.132 694.119C360.651 698.166 351.379 702.361 344.46 706.758C337.129 711.411 332.427 716.298 330.531 721.474C328.516 726.988 329.682 732.857 334.269 739.17C338.633 745.17 345.902 751.376 355.735 757.863C366.227 764.782 379.637 772.031 395.63 779.704C412.757 787.946 432.884 796.728 455.619 806.21C480.176 816.451 507.956 827.582 538.587 839.866C582.27 857.381 632.068 877.334 687.021 900.606C750.411 927.446 822.52 959.482 903.559 998.896C1001.9 1046.73 1119.03 1108.18 1261.37 1191.02C1443 1296.71 1690.78 1452.03 2064.35 1705.97H1915.52C1588.92 1462.16 1364.49 1309.25 1196.41 1203.67C1065.78 1121.66 956.32 1060.01 863.396 1011.62Z" fill="black"/>
<path d="M757.346 1011.62C689.762 971.648 628.384 938.919 573.896 911.411C526.624 887.546 483.387 867.015 445.428 848.994C431.676 842.463 418.407 836.166 405.751 830.087C393.623 824.268 382.043 818.643 371.135 813.216C360.655 807.999 350.781 802.959 341.612 798.092C332.793 793.406 324.617 788.877 317.187 784.493C309.085 779.721 302.067 775.233 296.042 771.001C290.896 767.438 285.969 763.568 281.289 759.412C277.82 756.347 274.647 752.962 271.811 749.304C269.691 746.586 267.983 743.572 266.742 740.357C265.553 737.375 265.126 734.145 265.499 730.957C265.871 727.769 267.032 724.724 268.877 722.097C270.914 719.134 273.386 716.495 276.208 714.267C279.591 711.551 283.209 709.141 287.017 707.063C292.016 704.321 297.174 701.878 302.463 699.749C308.07 697.452 314.285 695.213 321.106 693.031C327.722 690.913 334.9 688.836 342.642 686.8C350.165 684.822 358.213 682.879 366.787 680.969C391.67 675.418 405.665 670.481 412.151 666.01C414.945 664.086 416.355 662.243 416.643 660.471H430.992C431.013 661.576 430.687 662.66 430.061 663.57C429.204 664.821 428.134 665.912 426.9 666.793C424.915 668.248 422.79 669.502 420.558 670.539C417.424 672.02 414.212 673.33 410.936 674.462C407.095 675.818 402.694 677.198 397.629 678.604C392.478 680.042 386.675 681.488 380.185 683.013C364.649 686.619 350.926 690.32 339.193 694.14C326.777 698.187 316.528 702.382 308.607 706.779C300.204 711.432 294.377 716.319 291.299 721.495C288.002 727.009 287.829 732.877 290.965 739.191C293.945 745.191 299.788 751.397 308.129 757.883C317.026 764.803 328.784 772.051 342.989 779.725C358.236 787.967 376.323 796.748 396.879 806.231C419.079 816.472 444.27 827.602 472.099 839.887C511.764 857.401 556.955 877.355 606.551 900.626C663.758 927.466 728.495 959.503 800.464 998.916C887.796 1046.75 990.78 1108.2 1114.07 1191.04C1271.37 1296.73 1483.42 1452.05 1798.54 1705.99H1649.66C1379.16 1462.18 1189.92 1309.27 1046.13 1203.69C934.396 1121.66 839.148 1060.01 757.346 1011.62Z" fill="black"/>
<path d="M895.849 1203.7C803.003 1121.66 721.943 1060.01 651.284 1011.62C592.902 971.648 539.057 938.919 490.903 911.411C449.125 887.546 410.614 867.016 376.806 848.994C364.558 842.463 352.739 836.166 341.48 830.087C330.692 824.269 320.406 818.643 310.742 813.216C301.461 807.999 292.746 802.959 284.697 798.092C276.958 793.406 269.825 788.877 263.4 784.493C256.394 779.721 250.415 775.233 245.362 771.001C241.047 767.449 237.008 763.575 233.28 759.412C230.502 756.337 228.098 752.944 226.117 749.304C224.6 746.52 223.582 743.492 223.109 740.357C222.65 737.114 222.994 733.809 224.11 730.73C225.322 727.527 227.141 724.589 229.468 722.076C232.19 719.113 235.256 716.484 238.6 714.246C242.58 711.551 246.747 709.144 251.07 707.043C256.647 704.326 262.356 701.89 268.176 699.744C274.316 697.448 281.047 695.209 288.369 693.027C295.471 690.909 303.129 688.832 311.344 686.796C319.311 684.818 327.807 682.875 336.832 680.965C362.992 675.414 378.12 670.477 385.637 666.006C388.872 664.081 390.706 662.239 391.406 660.467H405.76C405.496 661.629 404.927 662.699 404.111 663.566C402.965 664.816 401.65 665.901 400.205 666.789C397.909 668.23 395.5 669.483 393.001 670.535C390.034 671.825 386.535 673.131 382.476 674.458C378.322 675.814 373.583 677.194 368.217 678.6C362.732 680.038 356.592 681.484 349.755 683.009C333.387 686.615 318.848 690.316 306.201 694.136C292.853 698.183 281.648 702.378 272.709 706.775C263.231 711.428 256.283 716.315 252.005 721.491C247.452 727.005 245.915 732.873 247.596 739.186C249.195 745.187 253.609 751.393 260.458 757.879C267.764 764.798 277.852 772.047 290.289 779.721C303.621 787.963 319.705 796.744 338.072 806.227C357.915 816.467 380.556 827.598 405.541 839.883C441.175 857.397 481.78 877.351 526.014 900.622C577.045 927.462 634.396 959.499 697.299 998.912C773.62 1046.74 862.456 1108.2 966.668 1191.03C1099.64 1296.73 1275.94 1452.04 1532.6 1705.98H1383.75C1169.38 1462.19 1015.34 1309.28 895.849 1203.7Z" fill="black"/>
<path d="M545.222 1011.62C496.046 971.648 449.735 938.919 407.911 911.411C371.646 887.546 337.854 867.016 308.183 848.994C297.439 842.463 287.071 836.166 277.213 830.087C267.768 824.269 258.776 818.643 250.365 813.216C242.288 807.999 234.73 802.959 227.807 798.092C221.139 793.406 215.032 788.877 209.637 784.493C204.386 780.307 199.398 775.801 194.703 771.001C191.201 767.446 188.047 763.566 185.282 759.412C183.192 756.294 181.565 752.889 180.453 749.304C179.565 746.41 179.244 743.372 179.505 740.357C179.846 736.949 180.942 733.66 182.715 730.73C184.695 727.484 187.167 724.564 190.042 722.076C193.431 719.124 197.095 716.502 200.983 714.246C205.546 711.568 210.263 709.163 215.11 707.043C220.767 704.534 227.036 702.096 233.918 699.728C240.586 697.431 247.831 695.192 255.652 693.011C263.243 690.893 271.379 688.816 280.061 686.78C288.49 684.802 297.432 682.858 306.889 680.949C334.33 675.398 350.596 670.461 359.143 665.989C362.819 664.065 365.077 662.223 366.182 660.451H380.535C379.982 661.642 379.178 662.699 378.178 663.55C376.754 664.793 375.196 665.874 373.533 666.772C370.931 668.201 368.235 669.452 365.465 670.518C362.201 671.808 358.401 673.115 354.033 674.442C349.571 675.799 344.501 677.179 338.822 678.583C333.006 680.023 326.516 681.493 319.351 682.993C302.15 686.598 286.741 690.299 273.224 694.119C258.949 698.166 246.776 702.361 236.824 706.758C226.278 711.411 218.201 716.298 212.732 721.474C206.913 726.988 204.02 732.857 204.251 739.17C204.466 745.17 207.453 751.376 212.811 757.863C218.522 764.782 226.937 772.031 237.607 779.704C249.042 787.946 263.103 796.728 279.29 806.21C296.776 816.451 316.853 827.582 339.012 839.866C370.616 857.381 406.617 877.334 445.498 900.606C490.351 927.446 540.339 959.482 594.159 998.896C659.473 1046.73 734.157 1108.18 819.301 1191.02C927.939 1296.71 1068.48 1452.03 1266.69 1705.97H1117.84C959.596 1462.16 840.755 1309.25 745.572 1203.67C671.609 1121.66 604.729 1060.01 545.222 1011.62Z" fill="black"/>
<path d="M439.16 1011.62C399.187 971.648 360.408 938.919 324.918 911.411C294.13 887.546 265.069 867.016 239.556 848.994C230.317 842.463 221.395 836.166 212.939 830.087C204.833 824.269 197.135 818.643 189.972 813.216C183.094 807.999 176.698 802.959 170.896 798.092C165.312 793.406 160.264 788.877 155.859 784.493C151.572 780.308 147.616 775.797 144.027 771.001C141.329 767.417 139.064 763.527 137.277 759.412C135.885 756.206 135.038 752.789 134.772 749.304C134.568 746.278 134.945 743.241 135.884 740.357C137.076 736.836 138.918 733.571 141.316 730.73C144.052 727.473 147.18 724.566 150.629 722.076C154.669 719.143 158.929 716.525 163.371 714.246C168.075 711.774 173.337 709.372 179.159 707.043C185.392 704.534 192.222 702.096 199.648 699.728C206.844 697.431 214.605 695.192 222.932 693.011C231.009 690.893 239.622 688.816 248.771 686.78C257.655 684.802 267.047 682.858 276.946 680.949C305.661 675.398 323.068 670.461 332.641 665.989C336.762 664.065 339.445 662.223 340.957 660.451H355.306C354.469 661.653 353.43 662.701 352.236 663.55C350.542 664.784 348.739 665.863 346.85 666.772C343.946 668.19 340.963 669.441 337.916 670.518C334.359 671.808 330.259 673.115 325.586 674.442C320.81 675.797 315.436 677.178 309.423 678.583C303.275 680.023 296.445 681.493 288.934 682.993C270.906 686.6 254.677 690.309 240.248 694.119C225.038 698.166 211.9 702.361 200.934 706.758C189.317 711.411 180.119 716.298 173.455 721.474C166.367 726.988 162.127 732.857 160.899 739.17C159.736 745.17 161.311 751.376 165.156 757.863C169.277 764.782 176.031 772.031 184.936 779.704C194.472 787.946 206.518 796.728 220.521 806.21C235.649 816.451 253.168 827.582 272.499 839.866C300.069 857.381 331.479 877.334 365.007 900.606C403.679 927.446 446.294 959.482 491.04 998.896C545.342 1046.73 605.883 1108.18 671.951 1191.02C756.258 1296.71 861.043 1452.03 1000.81 1705.97H851.923C749.801 1462.16 666.165 1309.25 595.284 1203.67C540.215 1121.66 487.528 1060.01 439.16 1011.62Z" fill="black"/>
<path d="M333.09 1011.62C302.323 971.648 271.073 938.919 241.917 911.411C216.623 887.546 192.292 867.016 170.929 848.994C163.186 842.463 155.714 836.166 148.676 830.087C141.905 824.269 135.489 818.643 129.591 813.216C123.913 807.999 118.675 802.959 113.993 798.092C109.787 793.772 105.811 789.232 102.084 784.493C98.7515 780.285 95.8314 775.767 93.3638 771.001C91.4675 767.348 90.0941 763.447 89.284 759.412C88.6251 756.08 88.5637 752.657 89.1026 749.304C89.6355 746.161 90.7076 743.134 92.2717 740.357C94.318 736.779 96.8971 733.532 99.9202 730.73C103.394 727.48 107.181 724.582 111.224 722.076C115.902 719.16 120.761 716.545 125.771 714.246C131.043 711.774 136.857 709.372 143.211 707.043C150.014 704.54 157.405 702.107 165.386 699.744C173.109 697.448 181.385 695.209 190.215 693.027C198.779 690.909 207.87 688.832 217.488 686.796C226.829 684.818 236.667 682.875 247.003 680.965C276.995 675.414 295.54 670.477 306.143 666.006C310.705 664.081 313.816 662.239 315.732 660.467H330.086C328.973 661.669 327.7 662.711 326.303 663.566C324.342 664.79 322.294 665.867 320.175 666.789C317.41 668.025 314.154 669.262 310.379 670.535C306.522 671.825 302.137 673.131 297.147 674.458C292.059 675.815 286.353 677.196 280.028 678.6C273.55 680.038 266.396 681.484 258.521 683.009C239.669 686.616 222.586 690.325 207.272 694.136C191.134 698.183 177.028 702.378 165.053 706.775C152.364 711.428 142.037 716.315 134.186 721.491C125.825 727.005 120.233 732.873 117.554 739.186C115.007 745.187 115.139 751.393 117.509 757.879C120.035 764.798 125.12 772.047 132.245 779.721C139.886 787.963 149.908 796.744 161.731 806.227C174.506 816.467 189.457 827.598 205.962 839.883C229.501 857.397 256.316 877.351 284.487 900.622C316.981 927.462 352.216 959.499 387.891 998.912C431.186 1046.74 477.576 1108.2 524.58 1191.03C584.553 1296.73 653.567 1452.04 734.866 1705.98H586.024C540.034 1462.18 491.6 1309.27 445.024 1203.68C408.834 1121.66 370.34 1060.01 333.09 1011.62Z" fill="black"/>
<path d="M41.2784 759.412C41.4217 755.946 42.1475 752.529 43.4255 749.304C44.7268 746.085 46.4869 743.072 48.6509 740.357C51.5393 736.762 54.8519 733.53 58.5165 730.73C62.7108 727.499 67.1548 724.605 71.8067 722.076C77.116 719.181 82.5743 716.567 88.1589 714.246C93.9942 711.774 100.36 709.372 107.256 707.043C114.657 704.534 122.613 702.096 131.124 699.728C139.366 697.431 148.158 695.192 157.499 693.011C166.565 690.893 176.135 688.816 186.21 686.78C196.001 684.802 206.286 682.858 217.063 680.949C248.338 675.398 268.015 670.461 279.649 665.989C284.652 664.065 288.184 662.223 290.512 660.451H304.865C303.483 661.646 301.974 662.685 300.365 663.55C298.144 664.764 295.849 665.84 293.496 666.772C290.446 668.009 286.902 669.245 282.839 670.518C278.685 671.808 273.987 673.115 268.7 674.442C263.301 675.799 257.278 677.179 250.629 678.583C243.821 680.021 236.329 681.468 228.108 682.993C208.423 686.6 190.487 690.309 174.3 694.119C157.228 698.166 142.184 702.379 129.167 706.758C115.407 711.411 103.959 716.298 94.9173 721.474C85.2865 726.988 78.3468 732.857 74.2175 739.17C70.2861 745.17 68.988 751.376 69.8616 757.863C70.7971 764.782 74.2052 772.031 79.5666 779.704C85.3071 787.946 93.3101 796.728 102.949 806.21C113.359 816.451 125.755 827.582 139.432 839.866C158.937 857.381 181.161 877.334 203.975 900.606C230.288 927.446 258.15 959.482 284.747 998.896C317.031 1046.73 349.277 1108.18 377.209 1191.02C412.852 1296.71 446.129 1452.03 468.951 1705.97H320.158C330.275 1462.16 317.035 1309.25 294.761 1203.67C277.453 1121.63 253.139 1059.98 227.057 1011.59C205.492 971.615 181.775 938.886 158.949 911.378C139.168 887.513 119.536 866.983 102.323 848.962C96.0835 842.43 90.0669 836.133 84.4046 830.054C78.9773 824.236 73.8672 818.61 69.2064 813.183C64.7269 807.966 60.6471 802.926 57.0866 798.059C53.8627 793.724 50.929 789.181 48.3047 784.46C45.9161 780.196 44.0324 775.668 42.6919 770.968C41.6279 767.212 41.1511 763.314 41.2784 759.412V759.412Z" fill="black"/>
<path d="M304.865 0H290.512V660.459H304.865V0Z" fill="black"/>
<path d="M330.086 0H315.732V660.459H330.086V0Z" fill="black"/>
<path d="M355.306 0H340.953V660.459H355.306V0Z" fill="black"/>
<path d="M380.527 0H366.173V660.459H380.527V0Z" fill="black"/>
<path d="M405.747 0H391.394V660.459H405.747V0Z" fill="black"/>
<path d="M430.968 0H416.614V660.459H430.968V0Z" fill="black"/>
<path d="M456.192 0H441.839V660.459H456.192V0Z" fill="black"/>
</g>
<defs>
<clipPath id="clip0_48_82">
<rect width="1920" height="1500" fill="white"/>
</clipPath>
</defs>
</svg>
