<svg width="223" height="63" viewBox="0 0 223 63" fill="none" xmlns="http://www.w3.org/2000/svg">
<path d="M31.4288 41.247C29.8514 41.8318 28.3804 42.1242 27.0157 42.1242C25.4738 42.1242 24.2243 41.7166 23.2673 40.9014C22.3103 40.0861 21.8317 38.7834 21.8317 36.9934V28.4598C21.8317 27.1128 22.0178 26.0937 22.39 25.4025C22.7799 24.7113 23.3648 24.1265 24.1446 23.6479C24.9244 23.2049 25.8815 22.9833 27.0157 22.9833C28.3981 22.9833 29.6476 23.2758 30.7642 23.8606L29.94 26.5191C29.1248 26.2178 28.2298 26.0671 27.255 26.0671C26.5106 26.0671 25.908 26.271 25.4472 26.6786C24.9864 27.0862 24.756 27.6002 24.756 28.2205V36.9402C24.756 38.429 25.589 39.1734 27.255 39.1734C27.7867 39.1734 28.3184 39.1202 28.8501 39.0138C29.3818 38.8898 30.0907 38.7126 30.9768 38.4822L31.4288 41.247ZM44.3406 36.9402C44.3406 38.7303 43.7912 40.0506 42.6923 40.9014C41.6112 41.7343 40.3086 42.1508 38.7844 42.1508C37.8274 42.1508 36.9235 41.9825 36.0728 41.6457C35.2221 41.2913 34.522 40.7241 33.9726 39.9443C33.4409 39.1645 33.1751 38.1631 33.1751 36.9402V28.38C33.1751 26.5545 33.6713 25.1721 34.6638 24.2328C35.674 23.2935 37.0564 22.8238 38.811 22.8238C40.5656 22.8238 41.9214 23.3201 42.8784 24.3126C43.8532 25.305 44.3406 26.6697 44.3406 28.4066V36.9402ZM41.4163 29.3636C41.4163 28.6193 41.3543 28.0078 41.2302 27.5293C41.1061 27.0508 40.8491 26.6786 40.4592 26.4127C40.0693 26.1292 39.5022 25.9874 38.7578 25.9874C38.0135 25.9874 37.4463 26.1203 37.0564 26.3862C36.6665 26.652 36.4095 27.0242 36.2855 27.5027C36.1614 27.9635 36.0994 28.575 36.0994 29.337V36.4351C36.0994 37.2858 36.312 37.9593 36.7374 38.4556C37.1805 38.9341 37.8539 39.1734 38.7578 39.1734C39.5908 39.1734 40.2377 38.9164 40.6985 38.4024C41.177 37.8884 41.4163 37.215 41.4163 36.382V29.3636ZM51.0885 29.2839V41.8584H48.1642V23.2492H51.0885L58.2929 35.7439V23.2492H61.2438V41.8584H58.2929L51.0885 29.2839ZM68.3789 29.2839V41.8584H65.4546V23.2492H68.3789L75.5833 35.7439V23.2492H78.5342V41.8584H75.5833L68.3789 29.2839ZM82.745 23.2492H91.6242V26.1735H85.6693V30.879H89.3114L88.4873 33.6703H85.6693V39.1999H91.5711V41.8584H82.745V23.2492ZM104.381 41.247C102.803 41.8318 101.332 42.1242 99.9677 42.1242C98.4257 42.1242 97.1763 41.7166 96.2192 40.9014C95.2622 40.0861 94.7837 38.7834 94.7837 36.9934V28.4598C94.7837 27.1128 94.9697 26.0937 95.3419 25.4025C95.7318 24.7113 96.3167 24.1265 97.0965 23.6479C97.8763 23.2049 98.8334 22.9833 99.9677 22.9833C101.35 22.9833 102.6 23.2758 103.716 23.8606L102.892 26.5191C102.077 26.2178 101.182 26.0671 100.207 26.0671C99.4625 26.0671 98.86 26.271 98.3992 26.6786C97.9384 27.0862 97.708 27.6002 97.708 28.2205V36.9402C97.708 38.429 98.5409 39.1734 100.207 39.1734C100.739 39.1734 101.27 39.1202 101.802 39.0138C102.334 38.8898 103.043 38.7126 103.929 38.4822L104.381 41.247ZM108.28 26.2001H104.452V23.2492H115.139V26.2001H111.205V41.8584H108.28V26.2001ZM133.899 32.474L131.586 41.8584H128.183L124.621 23.2492H127.838L130.018 35.1591L132.862 23.2492H134.936L137.78 35.1591L139.774 23.2492H143.124L139.561 41.8584H136.265L133.899 32.474ZM151.008 36.9934H146.728L145.692 41.8584H142.395L146.755 23.2492H150.876L155.581 41.8584H152.098L151.008 36.9934ZM147.42 33.883H150.317L148.802 28.1407L147.42 33.883ZM157.93 23.2492H160.854V39.1734H167.527V41.8584H157.93V23.2492ZM169.638 23.2492H172.563V39.1734H179.235V41.8584H169.638V23.2492ZM181.347 23.2492H190.226V26.1735H184.271V30.879H187.913L187.089 33.6703H184.271V39.1999H190.173V41.8584H181.347V23.2492ZM195.459 26.2001H191.631V23.2492H202.318V26.2001H198.383V41.8584H195.459V26.2001Z" fill="black"/>
<rect width="222.425" height="5.90769" fill="black"/>
<rect y="56.7139" width="222.425" height="5.90769" fill="black"/>
</svg>
