<svg width="223" height="63" viewBox="0 0 223 63" fill="none" xmlns="http://www.w3.org/2000/svg">
<path d="M17.0736 22.3642H22.0715C24.0742 22.3642 25.5984 22.9136 26.6441 24.0124C27.7074 25.1113 28.2391 26.5734 28.2391 28.3989V35.6831C28.2391 39.2277 26.3605 41 22.6032 41H17.0736V22.3642ZM25.3148 28.133C25.3148 27.1583 25.0667 26.4494 24.5705 26.0063C24.0919 25.5455 23.3476 25.3151 22.3374 25.3151H19.9979V38.315H22.1778C23.1349 38.315 23.897 38.1732 24.4641 37.8896C25.0313 37.5883 25.3148 36.9414 25.3148 35.9489V28.133ZM31.1188 22.3908H39.9981V25.3151H34.0431V30.0206H37.6852L36.8611 32.8119H34.0431V38.3415H39.9449V41H31.1188V22.3908ZM43.4765 22.3908H49.5378C51.3987 22.3908 52.7722 22.9934 53.6584 24.1985C54.5623 25.386 55.0142 26.8836 55.0142 28.6913C55.0142 33.4411 53.2685 35.816 49.777 35.816H46.4008V41H43.4765V22.3908ZM48.8997 33.0246C49.91 33.0246 50.6455 32.8031 51.1063 32.36C51.5848 31.9169 51.8684 31.4207 51.957 30.8713C52.0456 30.3041 52.0899 29.5952 52.0899 28.7445C52.0899 27.8052 51.957 27.0874 51.6911 26.5911C51.443 26.0772 51.0797 25.7404 50.6012 25.5809C50.1404 25.4037 49.5378 25.3151 48.7934 25.3151H46.4008V33.0246H48.8997ZM57.5996 22.3908H60.5239V38.315H67.1966V41H57.5996V22.3908ZM80.075 36.0818C80.075 37.8719 79.5256 39.1922 78.4267 40.043C77.3456 40.8759 76.043 41.2924 74.5188 41.2924C73.5618 41.2924 72.6579 41.1241 71.8072 40.7873C70.9565 40.4329 70.2564 39.8657 69.707 39.0859C69.1753 38.3061 68.9094 37.3047 68.9094 36.0818V27.5216C68.9094 25.6961 69.4057 24.3137 70.3982 23.3744C71.4084 22.4351 72.7908 21.9654 74.5454 21.9654C76.3 21.9654 77.6558 22.4617 78.6128 23.4542C79.5876 24.4466 80.075 25.8113 80.075 27.5482V36.0818ZM77.1507 28.5052C77.1507 27.7609 77.0886 27.1494 76.9646 26.6709C76.8405 26.1924 76.5835 25.8202 76.1936 25.5543C75.8037 25.2708 75.2366 25.129 74.4922 25.129C73.7478 25.129 73.1807 25.2619 72.7908 25.5278C72.4009 25.7936 72.1439 26.1658 72.0198 26.6443C71.8958 27.1051 71.8337 27.7166 71.8337 28.4786V35.5767C71.8337 36.4274 72.0464 37.1009 72.4718 37.5972C72.9149 38.0757 73.5883 38.315 74.4922 38.315C75.3252 38.315 75.9721 38.058 76.4329 37.544C76.9114 37.03 77.1507 36.3566 77.1507 35.5236V28.5052ZM89.1297 39.272C89.7146 39.2011 90.1931 38.9796 90.5653 38.6074C90.9375 38.2352 91.1236 37.5794 91.1236 36.6401V35.1514C90.2374 35.5945 89.307 35.816 88.3322 35.816C87.127 35.816 86.0637 35.5856 85.1421 35.1248C84.2205 34.6463 83.5027 33.9728 82.9887 33.1044C82.4925 32.2182 82.2443 31.1903 82.2443 30.0206V22.3908H85.1686V29.7547C85.1686 30.8535 85.4345 31.6599 85.9662 32.1739C86.4979 32.6879 87.2865 32.9449 88.3322 32.9449C88.9171 32.9449 89.3956 32.8828 89.7678 32.7588C90.1577 32.6347 90.4235 32.5106 90.5653 32.3866C90.7248 32.2625 90.9109 32.0942 91.1236 31.8815V22.3908H94.0479V36.8528C94.0479 38.2529 93.7466 39.3429 93.144 40.1227C92.5414 40.9025 91.5135 41.3633 90.0602 41.5051L89.1297 39.272ZM114.283 40.3886C112.706 40.9734 111.235 41.2658 109.87 41.2658C108.328 41.2658 107.079 40.8582 106.122 40.043C105.165 39.2277 104.686 37.925 104.686 36.135V27.6014C104.686 26.2544 104.872 25.2353 105.245 24.5441C105.634 23.8529 106.219 23.2681 106.999 22.7895C107.779 22.3465 108.736 22.1249 109.87 22.1249C111.253 22.1249 112.502 22.4174 113.619 23.0022L112.795 25.6607C111.979 25.3594 111.084 25.2087 110.11 25.2087C109.365 25.2087 108.763 25.4126 108.302 25.8202C107.841 26.2278 107.611 26.7418 107.611 27.3621V36.0818C107.611 37.5706 108.444 38.315 110.11 38.315C110.641 38.315 111.173 38.2618 111.705 38.1554C112.236 38.0314 112.945 37.8542 113.831 37.6238L114.283 40.3886ZM127.195 36.0818C127.195 37.8719 126.646 39.1922 125.547 40.043C124.466 40.8759 123.163 41.2924 121.639 41.2924C120.682 41.2924 119.778 41.1241 118.927 40.7873C118.077 40.4329 117.377 39.8657 116.827 39.0859C116.295 38.3061 116.03 37.3047 116.03 36.0818V27.5216C116.03 25.6961 116.526 24.3137 117.518 23.3744C118.529 22.4351 119.911 21.9654 121.666 21.9654C123.42 21.9654 124.776 22.4617 125.733 23.4542C126.708 24.4466 127.195 25.8113 127.195 27.5482V36.0818ZM124.271 28.5052C124.271 27.7609 124.209 27.1494 124.085 26.6709C123.961 26.1924 123.704 25.8202 123.314 25.5543C122.924 25.2708 122.357 25.129 121.612 25.129C120.868 25.129 120.301 25.2619 119.911 25.5278C119.521 25.7936 119.264 26.1658 119.14 26.6443C119.016 27.1051 118.954 27.7166 118.954 28.4786V35.5767C118.954 36.4274 119.167 37.1009 119.592 37.5972C120.035 38.0757 120.709 38.315 121.612 38.315C122.445 38.315 123.092 38.058 123.553 37.544C124.032 37.03 124.271 36.3566 124.271 35.5236V28.5052ZM133.943 28.4255V41H131.019V22.3908H133.943L141.148 34.8855V22.3908H144.098V41H141.148L133.943 28.4255ZM150.064 25.3417H146.236V22.3908H156.923V25.3417H152.988V41H150.064V25.3417ZM165.811 35.816H161.93V41H159.005V22.3908H165.306C166.476 22.3908 167.45 22.6832 168.23 23.2681C169.01 23.8352 169.586 24.5973 169.958 25.5543C170.348 26.5114 170.543 27.5659 170.543 28.7179C170.543 29.5863 170.508 30.3396 170.437 30.9776C170.366 31.6156 170.18 32.2802 169.878 32.9714C169.595 33.6626 169.134 34.283 168.496 34.8324L170.57 41H167.592L165.811 35.816ZM164.615 33.0246C165.483 33.0246 166.121 32.8031 166.529 32.36C166.954 31.8992 167.211 31.3764 167.3 30.7915C167.406 30.2066 167.459 29.5154 167.459 28.7179C167.459 27.7786 167.326 27.0697 167.06 26.5911C166.795 26.0949 166.422 25.767 165.944 25.6075C165.465 25.4303 164.845 25.3417 164.083 25.3417H161.93V33.0246H164.615ZM181.109 36.135H176.829L175.792 41H172.496L176.856 22.3908H180.976L185.682 41H182.199L181.109 36.135ZM177.52 33.0246H180.418L178.903 27.2823L177.52 33.0246ZM195.932 40.3886C194.355 40.9734 192.884 41.2658 191.519 41.2658C189.977 41.2658 188.728 40.8582 187.771 40.043C186.814 39.2277 186.335 37.925 186.335 36.135V27.6014C186.335 26.2544 186.521 25.2353 186.894 24.5441C187.284 23.8529 187.868 23.2681 188.648 22.7895C189.428 22.3465 190.385 22.1249 191.519 22.1249C192.902 22.1249 194.151 22.4174 195.268 23.0022L194.444 25.6607C193.628 25.3594 192.733 25.2087 191.759 25.2087C191.014 25.2087 190.412 25.4126 189.951 25.8202C189.49 26.2278 189.26 26.7418 189.26 27.3621V36.0818C189.26 37.5706 190.093 38.315 191.759 38.315C192.29 38.315 192.822 38.2618 193.354 38.1554C193.885 38.0314 194.594 37.8542 195.48 37.6238L195.932 40.3886ZM199.832 25.3417H196.004V22.3908H206.691V25.3417H202.756V41H199.832V25.3417Z" fill="black"/>
<rect width="222.425" height="5.90769" fill="black"/>
<rect y="56.7139" width="222.425" height="5.90769" fill="black"/>
</svg>
