<svg width="223" height="63" viewBox="0 0 223 63" fill="none" xmlns="http://www.w3.org/2000/svg">
<path d="M31.3516 40.3886C29.7743 40.9734 28.3033 41.2658 26.9386 41.2658C25.3967 41.2658 24.1472 40.8582 23.1902 40.043C22.2331 39.2277 21.7546 37.925 21.7546 36.135V27.6014C21.7546 26.2544 21.9407 25.2353 22.3129 24.5441C22.7028 23.8529 23.2876 23.2681 24.0674 22.7895C24.8473 22.3465 25.8043 22.1249 26.9386 22.1249C28.321 22.1249 29.5705 22.4174 30.687 23.0022L29.8629 25.6607C29.0476 25.3594 28.1526 25.2087 27.1778 25.2087C26.4335 25.2087 25.8309 25.4126 25.3701 25.8202C24.9093 26.2278 24.6789 26.7418 24.6789 27.3621V36.0818C24.6789 37.5706 25.5119 38.315 27.1778 38.315C27.7095 38.315 28.2412 38.2618 28.7729 38.1554C29.3046 38.0314 30.0135 37.8542 30.8997 37.6238L31.3516 40.3886ZM44.2634 36.0818C44.2634 37.8719 43.714 39.1922 42.6152 40.043C41.5341 40.8759 40.2314 41.2924 38.7073 41.2924C37.7502 41.2924 36.8463 41.1241 35.9956 40.7873C35.1449 40.4329 34.4449 39.8657 33.8954 39.0859C33.3638 38.3061 33.0979 37.3047 33.0979 36.0818V27.5216C33.0979 25.6961 33.5942 24.3137 34.5866 23.3744C35.5969 22.4351 36.9793 21.9654 38.7338 21.9654C40.4884 21.9654 41.8442 22.4617 42.8013 23.4542C43.7761 24.4466 44.2634 25.8113 44.2634 27.5482V36.0818ZM41.3391 28.5052C41.3391 27.7609 41.2771 27.1494 41.153 26.6709C41.029 26.1924 40.772 25.8202 40.3821 25.5543C39.9922 25.2708 39.425 25.129 38.6807 25.129C37.9363 25.129 37.3692 25.2619 36.9793 25.5278C36.5894 25.7936 36.3324 26.1658 36.2083 26.6443C36.0842 27.1051 36.0222 27.7166 36.0222 28.4786V35.5767C36.0222 36.4274 36.2349 37.1009 36.6602 37.5972C37.1033 38.0757 37.7768 38.315 38.6807 38.315C39.5137 38.315 40.1606 38.058 40.6214 37.544C41.0999 37.03 41.3391 36.3566 41.3391 35.5236V28.5052ZM51.0114 28.4255V41H48.0871V22.3908H51.0114L58.2158 34.8855V22.3908H61.1667V41H58.2158L51.0114 28.4255ZM68.3018 28.4255V41H65.3774V22.3908H68.3018L75.5062 34.8855V22.3908H78.4571V41H75.5062L68.3018 28.4255ZM82.6678 22.3908H91.5471V25.3151H85.5921V30.0206H89.2342L88.4101 32.8119H85.5921V38.3415H91.4939V41H82.6678V22.3908ZM104.304 40.3886C102.726 40.9734 101.255 41.2658 99.8905 41.2658C98.3486 41.2658 97.0991 40.8582 96.1421 40.043C95.185 39.2277 94.7065 37.925 94.7065 36.135V27.6014C94.7065 26.2544 94.8926 25.2353 95.2648 24.5441C95.6547 23.8529 96.2396 23.2681 97.0194 22.7895C97.7992 22.3465 98.7562 22.1249 99.8905 22.1249C101.273 22.1249 102.522 22.4174 103.639 23.0022L102.815 25.6607C102 25.3594 101.105 25.2087 100.13 25.2087C99.3854 25.2087 98.7828 25.4126 98.322 25.8202C97.8612 26.2278 97.6308 26.7418 97.6308 27.3621V36.0818C97.6308 37.5706 98.4638 38.315 100.13 38.315C100.661 38.315 101.193 38.2618 101.725 38.1554C102.257 38.0314 102.965 37.8542 103.852 37.6238L104.304 40.3886ZM108.203 25.3417H104.375V22.3908H115.062V25.3417H111.127V41H108.203V25.3417ZM133.822 31.6156L131.509 41H128.106L124.544 22.3908H127.761L129.94 34.3007L132.785 22.3908H134.859L137.703 34.3007L139.697 22.3908H143.047L139.484 41H136.188L133.822 31.6156ZM150.931 36.135H146.651L145.614 41H142.318L146.678 22.3908H150.798L155.504 41H152.021L150.931 36.135ZM147.342 33.0246H150.24L148.725 27.2823L147.342 33.0246ZM157.852 22.3908H160.777V38.315H167.449V41H157.852V22.3908ZM169.561 22.3908H172.485V38.315H179.158V41H169.561V22.3908ZM181.27 22.3908H190.149V25.3151H184.194V30.0206H187.836L187.012 32.8119H184.194V38.3415H190.096V41H181.27V22.3908ZM195.382 25.3417H191.554V22.3908H202.241V25.3417H198.306V41H195.382V25.3417Z" fill="black"/>
<rect width="222.425" height="5.90769" fill="black"/>
<rect y="56.7139" width="222.425" height="5.90769" fill="black"/>
</svg>
