<svg width="223" height="63" viewBox="0 0 223 63" fill="none" xmlns="http://www.w3.org/2000/svg">
<g clip-path="url(#clip0_51_282)">
<path d="M73.3986 31.1637L70.2882 41H68.0551L64.9979 31.1903V41H62.0736V22.3908H64.9979L69.1717 34.6994L73.3986 22.3908H76.323V41H73.3986V31.1637ZM81.7286 25.2619L80.0803 25.2087V22.3908H84.6529V41H81.7286V25.2619ZM91.7902 28.4255V41H88.8659V22.3908H91.7902L98.9946 34.8855V22.3908H101.946V41H98.9946L91.7902 28.4255ZM107.911 25.3417H104.083V22.3908H114.77V25.3417H110.835V41H107.911V25.3417ZM127.176 28.4255V41H124.251V22.3908H127.176L134.38 34.8855V22.3908H137.331V41H134.38L127.176 28.4255ZM141.542 22.3908H150.421V25.3151H144.466V30.0206H148.188L147.231 32.8119H144.466V41H141.542V22.3908ZM155.291 25.3417H151.462V22.3908H162.15V25.3417H158.215V41H155.291V25.3417Z" fill="black"/>
<rect width="222.425" height="5.90769" fill="black"/>
<rect y="56.7139" width="222.425" height="5.90769" fill="black"/>
</g>
<defs>
<clipPath id="clip0_51_282">
<rect width="222.425" height="62.6216" fill="white"/>
</clipPath>
</defs>
</svg>
