<svg width="223" height="63" viewBox="0 0 223 63" fill="none" xmlns="http://www.w3.org/2000/svg">
<path d="M51.3986 32.0222L48.2882 41.8585H46.0551L42.9979 32.0488V41.8585H40.0736V23.2493H42.9979L47.1717 35.558L51.3986 23.2493H54.323V41.8585H51.3986V32.0222ZM59.7286 26.1204L58.0803 26.0673V23.2493H62.6529V41.8585H59.7286V26.1204ZM69.7902 29.284V41.8585H66.8659V23.2493H69.7902L76.9946 35.7441V23.2493H79.9455V41.8585H76.9946L69.7902 29.284ZM85.9109 26.2002H82.0827V23.2493H92.7697V26.2002H88.8352V41.8585H85.9109V26.2002ZM109.35 36.9935H105.069L104.033 41.8585H100.736L105.096 23.2493H109.217L113.922 41.8585H110.44L109.35 36.9935ZM105.761 33.8831H108.658L107.143 28.1409L105.761 33.8831ZM117.467 26.1204L115.819 26.0673V23.2493H120.391V41.8585H117.467V26.1204ZM131.41 36.6745H127.529V41.8585H124.604V23.2493H130.905C132.075 23.2493 133.049 23.5417 133.829 24.1266C134.609 24.6937 135.185 25.4558 135.557 26.4129C135.947 27.3699 136.142 28.4244 136.142 29.5764C136.142 30.4449 136.107 31.1981 136.036 31.8361C135.965 32.4742 135.779 33.1388 135.477 33.83C135.194 34.5212 134.733 35.1415 134.095 35.6909L136.169 41.8585H133.191L131.41 36.6745ZM130.214 33.8831C131.082 33.8831 131.72 33.6616 132.128 33.2185C132.553 32.7577 132.81 32.2349 132.899 31.65C133.005 31.0652 133.058 30.374 133.058 29.5764C133.058 28.6371 132.925 27.9282 132.659 27.4497C132.394 26.9534 132.021 26.6255 131.543 26.466C131.064 26.2888 130.444 26.2002 129.682 26.2002H127.529V33.8831H130.214ZM149.933 29.284V41.8585H147.009V23.2493H149.933L157.138 35.7441V23.2493H160.089V41.8585H157.138L149.933 29.284ZM164.3 23.2493H173.179V26.1736H167.224V30.8791H170.946L169.989 33.6705H167.224V41.8585H164.3V23.2493ZM178.048 26.2002H174.22V23.2493H184.907V26.2002H180.973V41.8585H178.048V26.2002Z" fill="black"/>
<rect width="222.425" height="5.90769" fill="black"/>
<rect y="56.7139" width="222.425" height="5.90769" fill="black"/>
</svg>
