<svg width="223" height="63" viewBox="0 0 223 63" fill="none" xmlns="http://www.w3.org/2000/svg">
<path d="M34.3516 40.3886C32.7743 40.9734 31.3033 41.2658 29.9386 41.2658C28.3967 41.2658 27.1472 40.8582 26.1902 40.043C25.2331 39.2277 24.7546 37.925 24.7546 36.135V27.6014C24.7546 26.2544 24.9407 25.2353 25.3129 24.5441C25.7028 23.8529 26.2876 23.2681 27.0674 22.7895C27.8473 22.3465 28.8043 22.1249 29.9386 22.1249C31.321 22.1249 32.5705 22.4174 33.687 23.0022L32.8629 25.6607C32.0476 25.3594 31.1526 25.2087 30.1778 25.2087C29.4335 25.2087 28.8309 25.4126 28.3701 25.8202C27.9093 26.2278 27.6789 26.7418 27.6789 27.3621V36.0818C27.6789 37.5706 28.5119 38.315 30.1778 38.315C30.7095 38.315 31.2412 38.2618 31.7729 38.1554C32.3046 38.0314 33.0135 37.8542 33.8997 37.6238L34.3516 40.3886ZM43.3023 35.816H39.421V41H36.4967V22.3908H42.7972C43.967 22.3908 44.9417 22.6832 45.7215 23.2681C46.5014 23.8352 47.0774 24.5973 47.4495 25.5543C47.8394 26.5114 48.0344 27.5659 48.0344 28.7179C48.0344 29.5863 47.999 30.3396 47.9281 30.9776C47.8572 31.6156 47.6711 32.2802 47.3698 32.9714C47.0862 33.6626 46.6254 34.283 45.9874 34.8324L48.061 41H45.0835L43.3023 35.816ZM42.106 33.0246C42.9745 33.0246 43.6125 32.8031 44.0201 32.36C44.4455 31.8992 44.7025 31.3764 44.7911 30.7915C44.8974 30.2066 44.9506 29.5154 44.9506 28.7179C44.9506 27.7786 44.8177 27.0697 44.5518 26.5911C44.286 26.0949 43.9138 25.767 43.4353 25.6075C42.9567 25.4303 42.3364 25.3417 41.5743 25.3417H39.421V33.0246H42.106ZM51.5024 22.3908H60.3817V25.3151H54.4268V30.0206H58.0688L57.2447 32.8119H54.4268V38.3415H60.3285V41H51.5024V22.3908ZM70.9582 36.135H66.6781L65.6413 41H62.3448L66.7047 22.3908H70.8253L75.5308 41H72.0482L70.9582 36.135ZM67.3693 33.0246H70.267L68.7517 27.2823L67.3693 33.0246ZM77.8686 25.3417H74.0404V22.3908H84.7274V25.3417H80.7929V41H77.8686V25.3417ZM86.8101 22.3908H95.6894V25.3151H89.7344V30.0206H93.3765L92.5524 32.8119H89.7344V38.3415H95.6362V41H86.8101V22.3908ZM113.665 36.135H109.385L108.348 41H105.052L109.411 22.3908H113.532L118.238 41H114.755L113.665 36.135ZM110.076 33.0246H112.974L111.458 27.2823L110.076 33.0246ZM121.782 25.2619L120.134 25.2087V22.3908H124.707V41H121.782V25.2619ZM135.725 35.816H131.844V41H128.92V22.3908H135.22C136.39 22.3908 137.365 22.6832 138.145 23.2681C138.924 23.8352 139.5 24.5973 139.873 25.5543C140.263 26.5114 140.457 27.5659 140.457 28.7179C140.457 29.5863 140.422 30.3396 140.351 30.9776C140.28 31.6156 140.094 32.2802 139.793 32.9714C139.509 33.6626 139.048 34.283 138.41 34.8324L140.484 41H137.507L135.725 35.816ZM134.529 33.0246C135.398 33.0246 136.036 32.8031 136.443 32.36C136.869 31.8992 137.126 31.3764 137.214 30.7915C137.32 30.2066 137.374 29.5154 137.374 28.7179C137.374 27.7786 137.241 27.0697 136.975 26.5911C136.709 26.0949 136.337 25.767 135.858 25.6075C135.38 25.4303 134.759 25.3417 133.997 25.3417H131.844V33.0246H134.529ZM143.926 22.3642H148.923C150.926 22.3642 152.45 22.9136 153.496 24.0124C154.559 25.1113 155.091 26.5734 155.091 28.3989V35.6831C155.091 39.2277 153.212 41 149.455 41H143.926V22.3642ZM152.167 28.133C152.167 27.1583 151.919 26.4494 151.422 26.0063C150.944 25.5455 150.199 25.3151 149.189 25.3151H146.85V38.315H149.03C149.987 38.315 150.749 38.1732 151.316 37.8896C151.883 37.5883 152.167 36.9414 152.167 35.9489V28.133ZM166.048 35.816H162.167V41H159.243V22.3908H165.543C166.713 22.3908 167.688 22.6832 168.468 23.2681C169.247 23.8352 169.823 24.5973 170.196 25.5543C170.586 26.5114 170.781 27.5659 170.781 28.7179C170.781 29.5863 170.745 30.3396 170.674 30.9776C170.603 31.6156 170.417 32.2802 170.116 32.9714C169.832 33.6626 169.372 34.283 168.734 34.8324L170.807 41H167.83L166.048 35.816ZM164.852 33.0246C165.721 33.0246 166.359 32.8031 166.766 32.36C167.192 31.8992 167.449 31.3764 167.537 30.7915C167.644 30.2066 167.697 29.5154 167.697 28.7179C167.697 27.7786 167.564 27.0697 167.298 26.5911C167.032 26.0949 166.66 25.767 166.181 25.6075C165.703 25.4303 165.083 25.3417 164.32 25.3417H162.167V33.0246H164.852ZM184.055 36.0818C184.055 37.8719 183.505 39.1922 182.407 40.043C181.325 40.8759 180.023 41.2924 178.499 41.2924C177.542 41.2924 176.638 41.1241 175.787 40.7873C174.936 40.4329 174.236 39.8657 173.687 39.0859C173.155 38.3061 172.889 37.3047 172.889 36.0818V27.5216C172.889 25.6961 173.385 24.3137 174.378 23.3744C175.388 22.4351 176.771 21.9654 178.525 21.9654C180.28 21.9654 181.636 22.4617 182.593 23.4542C183.567 24.4466 184.055 25.8113 184.055 27.5482V36.0818ZM181.13 28.5052C181.13 27.7609 181.068 27.1494 180.944 26.6709C180.82 26.1924 180.563 25.8202 180.173 25.5543C179.784 25.2708 179.216 25.129 178.472 25.129C177.728 25.129 177.161 25.2619 176.771 25.5278C176.381 25.7936 176.124 26.1658 176 26.6443C175.876 27.1051 175.814 27.7166 175.814 28.4786V35.5767C175.814 36.4274 176.026 37.1009 176.452 37.5972C176.895 38.0757 177.568 38.315 178.472 38.315C179.305 38.315 179.952 38.058 180.413 37.544C180.891 37.03 181.13 36.3566 181.13 35.5236V28.5052ZM186.944 22.3908H193.005C194.866 22.3908 196.24 22.9934 197.126 24.1985C198.03 25.386 198.482 26.8836 198.482 28.6913C198.482 33.4411 196.736 35.816 193.244 35.816H189.868V41H186.944V22.3908ZM192.367 33.0246C193.377 33.0246 194.113 32.8031 194.574 32.36C195.052 31.9169 195.336 31.4207 195.424 30.8713C195.513 30.3041 195.557 29.5952 195.557 28.7445C195.557 27.8052 195.424 27.0874 195.158 26.5911C194.91 26.0772 194.547 25.7404 194.068 25.5809C193.608 25.4037 193.005 25.3151 192.261 25.3151H189.868V33.0246H192.367Z" fill="black"/>
<rect width="222.425" height="5.90769" fill="black"/>
<rect y="56.7139" width="222.425" height="5.90769" fill="black"/>
</svg>
