<svg width="460" height="318" viewBox="0 0 460 318" fill="none" xmlns="http://www.w3.org/2000/svg">
<g clip-path="url(#clip0_52_6)">
<path d="M292.076 287.562C362.924 287.562 420.357 230.129 420.357 159.281C420.357 88.4334 362.924 31 292.076 31C221.228 31 163.795 88.4334 163.795 159.281C163.795 230.129 221.228 287.562 292.076 287.562Z" fill="#FFB300"/>
<g style="mix-blend-mode:multiply">
<path d="M137.444 217.735C169.727 217.735 195.898 191.564 195.898 159.281C195.898 126.998 169.727 100.827 137.444 100.827C105.16 100.827 78.9897 126.998 78.9897 159.281C78.9897 191.564 105.16 217.735 137.444 217.735Z" fill="#BDBDB8"/>
</g>
<path d="M49.1289 168.41C54.1706 168.41 58.2578 164.323 58.2578 159.281C58.2578 154.239 54.1706 150.152 49.1289 150.152C44.0871 150.152 40 154.239 40 159.281C40 164.323 44.0871 168.41 49.1289 168.41Z" fill="#FFB300"/>
</g>
<defs>
<clipPath id="clip0_52_6">
<rect width="380.357" height="256.562" fill="white" transform="translate(40 31)"/>
</clipPath>
</defs>
</svg>
