<svg width="783" height="166" viewBox="0 0 783 166" fill="none" xmlns="http://www.w3.org/2000/svg">
<path d="M76.487 61.571L55.4811 128H40.3999L19.7531 61.7506V128H0.003946V2.32356H19.7531L47.9405 85.4495L76.487 2.32356H96.2362V128H76.487V61.571ZM152.851 150.083C155.963 150.083 158.716 149.126 161.11 147.211C163.623 145.295 164.88 142.243 164.88 138.054V127.641C164.521 127.761 163.144 128.18 160.751 128.898C158.357 129.736 154.826 130.154 150.158 130.154C139.625 130.154 131.486 127.342 125.741 121.716C120.115 115.971 117.302 107.533 117.302 96.4014V38.0516H137.052V91.0152C137.052 98.5558 138.009 103.703 139.924 106.455C141.959 109.089 145.37 110.405 150.158 110.405C153.629 110.405 156.382 109.927 158.417 108.969C160.571 107.892 162.187 105.977 163.264 103.224C164.341 100.351 164.88 96.2817 164.88 91.0152V62.8278C164.88 58.7583 165.837 54.7486 167.753 50.7988C169.787 46.8489 172.54 43.5574 176.011 40.9242C179.602 38.291 183.612 36.7948 188.04 36.4357L195.401 52.5941C191.93 53.432 189.237 55.1077 187.322 57.6212C185.527 60.015 184.629 62.7081 184.629 65.7004V138.952C184.629 146.732 182.774 152.836 179.063 157.265C175.473 161.813 169.309 164.626 160.571 165.703L152.851 150.083ZM313.39 95.1446H284.484L277.482 128H255.22L284.664 2.32356H312.492L344.27 128H320.751L313.39 95.1446ZM289.152 74.1387H308.722L298.488 35.3585L289.152 74.1387ZM370.904 21.7136C368.031 21.7136 365.518 20.6364 363.363 18.482C361.209 16.3275 360.131 13.814 360.131 10.9414C360.131 8.18846 361.209 5.79462 363.363 3.75986C365.518 1.60541 368.031 0.52818 370.904 0.52818C373.657 0.52818 376.05 1.60541 378.085 3.75986C380.24 5.79462 381.317 8.18846 381.317 10.9414C381.317 13.814 380.24 16.3275 378.085 18.482C376.05 20.6364 373.657 21.7136 370.904 21.7136ZM360.491 38.0516H380.24V128H360.491V38.0516ZM406.698 38.0516H425.011L426.447 38.7697C431.354 37.094 435.962 36.2562 440.271 36.2562C443.264 36.2562 447.632 36.8547 453.377 38.0516L456.968 38.7697L452.3 57.9803C448.949 56.3046 445.657 55.4667 442.426 55.4667C437.997 55.4667 434.227 56.8432 431.115 59.5961C428.003 62.2293 426.447 65.7602 426.447 70.1888V128H406.698V38.0516ZM537.976 20.816V128H527.922V2.32356H537.976L606.201 109.508V2.32356H616.255V128H606.201L537.976 20.816ZM644.692 2.32356H704.657V11.8391H654.746V53.8509H685.447L681.318 63.7255H654.746V128H644.692V2.32356ZM741.16 11.3004H710.638V2.32356H782.812V11.3004H751.214V128H741.16V11.3004Z" fill="black"/>
</svg>
