<svg width="207" height="93" viewBox="0 0 207 93" fill="none" xmlns="http://www.w3.org/2000/svg">
<path d="M0.734915 1.44647H12.1473C16.7203 1.44647 20.2007 2.70102 22.5884 5.21012C25.0165 7.71922 26.2306 11.0579 26.2306 15.2263V31.8592C26.2306 39.9531 21.9409 44 13.3614 44H0.734915V1.44647ZM19.5532 14.6192C19.5532 12.3934 18.9866 10.7747 17.8535 9.76292C16.7608 8.71072 15.0611 8.18462 12.7543 8.18462H7.41236V37.8689H12.3901C14.5754 37.8689 16.3156 37.5451 17.6106 36.8976C18.9057 36.2096 19.5532 34.7325 19.5532 32.4662V14.6192ZM51.2511 32.1627H42.3883V44H35.7109V1.50717H50.0977C52.7687 1.50717 54.9945 2.17492 56.7752 3.51041C58.5558 4.80543 59.8711 6.54561 60.7209 8.73096C61.6113 10.9163 62.0564 13.3242 62.0564 15.9547C62.0564 17.9377 61.9755 19.6577 61.8136 21.1146C61.6517 22.5715 61.2268 24.0891 60.5388 25.6674C59.8913 27.2457 58.8391 28.6621 57.3822 29.9167L62.1171 44H55.3183L51.2511 32.1627ZM48.5194 25.7888C50.5024 25.7888 51.9593 25.2829 52.8901 24.2712C53.8614 23.219 54.4482 22.0251 54.6505 20.6897C54.8933 19.3542 55.0148 17.7759 55.0148 15.9547C55.0148 13.8099 54.7112 12.1911 54.1042 11.0984C53.4972 9.96527 52.6473 9.21659 51.5546 8.85236C50.462 8.44767 49.0455 8.24532 47.3053 8.24532H42.3883V25.7888H48.5194ZM92.3672 32.7698C92.3672 36.8572 91.1126 39.8721 88.6035 41.8147C86.1349 43.7167 83.1604 44.6677 79.68 44.6677C77.4947 44.6677 75.4308 44.2833 73.4882 43.5144C71.5457 42.705 69.9472 41.41 68.6926 39.6293C67.4785 37.8487 66.8715 35.5621 66.8715 32.7698V13.2231C66.8715 9.05471 68.0046 5.8981 70.2709 3.75322C72.5777 1.60835 75.7343 0.535911 79.7407 0.535911C83.7472 0.535911 86.8431 1.66905 89.0285 3.93534C91.2543 6.20162 92.3672 9.31776 92.3672 13.2838V32.7698ZM85.6897 15.4691C85.6897 13.7694 85.5481 12.3732 85.2648 11.2805C84.9815 10.1879 84.3947 9.33799 83.5044 8.73096C82.6141 8.08345 81.319 7.75969 79.6193 7.75969C77.9196 7.75969 76.6246 8.06321 75.7343 8.67025C74.844 9.27729 74.2571 10.1271 73.9739 11.2198C73.6906 12.272 73.5489 13.6682 73.5489 15.4084V31.6164C73.5489 33.5589 74.0346 35.0967 75.0058 36.2299C76.0176 37.3226 77.5554 37.8689 79.6193 37.8689C81.5214 37.8689 82.9985 37.2821 84.0507 36.1085C85.1434 34.9349 85.6897 33.397 85.6897 31.495V15.4691ZM98.964 1.50717H112.805C117.054 1.50717 120.19 2.88313 122.214 5.63505C124.278 8.3465 125.31 11.7662 125.31 15.894C125.31 26.7398 121.323 32.1627 113.351 32.1627H105.641V44H98.964V1.50717ZM111.348 25.7888C113.654 25.7888 115.334 25.2829 116.386 24.2712C117.479 23.2595 118.126 22.1263 118.329 20.8718C118.531 19.5767 118.632 17.958 118.632 16.0154C118.632 13.8706 118.329 12.2316 117.722 11.0984C117.155 9.9248 116.325 9.15588 115.233 8.79166C114.18 8.38697 112.805 8.18462 111.105 8.18462H105.641V25.7888H111.348ZM116.723 40.9648C116.723 41.7742 116.42 42.4824 115.813 43.0894C115.206 43.6965 114.477 44 113.627 44C112.818 44 112.11 43.6965 111.503 43.0894C110.896 42.4824 110.592 41.7742 110.592 40.9648C110.592 40.1149 110.896 39.3865 111.503 38.7795C112.11 38.1724 112.818 37.8689 113.627 37.8689C114.477 37.8689 115.206 38.1724 115.813 38.7795C116.42 39.3865 116.723 40.1149 116.723 40.9648ZM29.8729 59.5233L18.8247 92H15.1218L4.13434 59.5233V92H0.734915V49.5072H4.13434L16.9429 86.7795L29.8729 49.5072H33.2723V92H29.8729V59.5233ZM68.1975 49.4465V80.709C68.1975 84.7965 66.9429 87.771 64.4338 89.6325C61.9652 91.4941 58.9705 92.4249 55.4496 92.4249C51.9288 92.4249 48.9138 91.4941 46.4047 89.6325C43.8956 87.771 42.6411 84.7965 42.6411 80.709V49.4465H46.0405V81.1947C46.0405 83.6633 46.9308 85.6463 48.7115 87.1437C50.5326 88.641 52.7584 89.3897 55.3889 89.3897C58.0194 89.3897 60.2453 88.641 62.0664 87.1437C63.8875 85.6463 64.7981 83.6633 64.7981 81.1947V49.4465H68.1975ZM78.2383 81.1947C78.3597 82.5706 78.8656 83.8859 79.7559 85.1404C80.6867 86.395 81.9413 87.427 83.5196 88.2363C85.1383 89.0053 86.9797 89.3897 89.0436 89.3897C92.1598 89.3897 94.7498 88.7017 96.8137 87.3258C98.9182 85.9094 99.9704 83.6835 99.9704 80.6483C99.9704 78.8677 99.4645 77.3906 98.4528 76.217C97.441 75.0029 96.1865 74.0518 94.6891 73.3639C93.1917 72.6354 91.148 71.8058 88.558 70.875C85.7656 69.9037 83.5196 69.0134 81.8199 68.204C80.1606 67.3542 78.7442 66.221 77.5706 64.8046C76.4374 63.3882 75.8709 61.567 75.8709 59.3412C75.8709 57.5606 76.3767 55.8811 77.3885 54.3028C78.4002 52.684 79.9178 51.389 81.9413 50.4177C84.0052 49.406 86.5345 48.9001 89.5293 48.9001C91.5123 48.9001 93.1513 49.0418 94.4463 49.3251C95.7413 49.6083 97.0566 50.0737 98.3921 50.7213L97.3601 53.9386C95.0533 52.765 92.4835 52.1782 89.6507 52.1782C86.5345 52.1782 84.0457 52.8257 82.1841 54.1207C80.3225 55.4157 79.3917 57.2166 79.3917 59.5233C79.3917 60.9802 79.8571 62.2146 80.7879 63.2263C81.7187 64.1976 82.8518 64.9867 84.1873 65.5937C85.5633 66.2008 87.4653 66.9292 89.8935 67.7791C92.8478 68.7908 95.2354 69.7419 97.0566 70.6322C98.8777 71.482 100.416 72.7164 101.67 74.3351C102.965 75.9134 103.613 77.9167 103.613 80.3448C103.613 84.068 102.419 87.0627 100.031 89.329C97.6838 91.5548 94.0416 92.6677 89.1043 92.6677C86.1096 92.6677 83.5398 92.1214 81.3949 91.0287C79.2905 89.8956 77.6717 88.4589 76.5386 86.7187C75.4459 84.9381 74.8591 83.0967 74.7782 81.1947H78.2383ZM111.295 49.5072H131.57V52.6638H114.694V66.9292H126.288L125.135 70.268H114.694V88.9648H131.448V92H111.295V49.5072ZM164.826 49.4465V80.709C164.826 84.7965 163.571 87.771 161.062 89.6325C158.594 91.4941 155.599 92.4249 152.078 92.4249C148.557 92.4249 145.542 91.4941 143.033 89.6325C140.524 87.771 139.27 84.7965 139.27 80.709V49.4465H142.669V81.1947C142.669 83.6633 143.559 85.6463 145.34 87.1437C147.161 88.641 149.387 89.3897 152.017 89.3897C154.648 89.3897 156.874 88.641 158.695 87.1437C160.516 85.6463 161.427 83.6633 161.427 81.1947V49.4465H164.826ZM203.033 59.5233L191.985 92H188.282L177.295 59.5233V92H173.896V49.5072H177.295L190.104 86.7795L203.033 49.5072H206.433V92H203.033V59.5233Z" fill="black"/>
</svg>
