<svg width="24" height="24" viewBox="0 0 24 24" fill="none" xmlns="http://www.w3.org/2000/svg">
<circle cx="12" cy="12" r="12" fill="white"/>
<path d="M7.33341 12.6663H15.2401L12.8201 15.573C12.7641 15.6404 12.7218 15.7182 12.6959 15.8019C12.6699 15.8857 12.6607 15.9737 12.6687 16.061C12.685 16.2372 12.7706 16.3999 12.9067 16.513C13.0429 16.6262 13.2184 16.6806 13.3947 16.6644C13.571 16.6481 13.7336 16.5625 13.8467 16.4263L17.1801 12.4263C17.2025 12.3945 17.2226 12.3611 17.2401 12.3263C17.2401 12.293 17.2734 12.273 17.2867 12.2397C17.317 12.1632 17.3328 12.0819 17.3334 11.9997C17.3328 11.9175 17.317 11.8361 17.2867 11.7597C17.2867 11.7263 17.2534 11.7063 17.2401 11.673C17.2226 11.6382 17.2025 11.6048 17.1801 11.573L13.8467 7.57301C13.7841 7.49775 13.7056 7.43723 13.6168 7.39575C13.5281 7.35427 13.4314 7.33285 13.3334 7.33301C13.1776 7.3327 13.0267 7.38696 12.9067 7.48634C12.8392 7.54231 12.7834 7.61104 12.7425 7.68861C12.7016 7.76617 12.6764 7.85104 12.6684 7.93836C12.6603 8.02568 12.6696 8.11373 12.6956 8.19746C12.7217 8.2812 12.7639 8.35898 12.8201 8.42634L15.2401 11.333H7.33341C7.1566 11.333 6.98703 11.4032 6.86201 11.5283C6.73699 11.6533 6.66675 11.8229 6.66675 11.9997C6.66675 12.1765 6.73699 12.3461 6.86201 12.4711C6.98703 12.5961 7.1566 12.6663 7.33341 12.6663Z" fill="#FF7A00"/>
</svg>
