<!-- "display: none" ensures the SVG doesn't take up space even though it's not being shown because of the use of symbol -->
<svg xmlns="http://www.w3.org/2000/svg" style="display:none;">
    <symbol id="arrow" viewBox="0 0 24 24">
        <g>
            <path fill-rule="evenodd" clip-rule="evenodd" d="M12 24C18.6274 24 24 18.6274 24 12C24 5.37258 18.6274 0 12 0C5.37258 0 0 5.37258 0 12C0 18.6274 5.37258 24 12 24ZM15.2401 12.6663H7.33341C7.1566 12.6663 6.98703 12.5961 6.86201 12.4711C6.73699 12.3461 6.66675 12.1765 6.66675 11.9997C6.66675 11.8229 6.73699 11.6533 6.86201 11.5283C6.98703 11.4032 7.1566 11.333 7.33341 11.333H15.2401L12.8201 8.42634C12.7639 8.35898 12.7217 8.2812 12.6956 8.19746C12.6696 8.11373 12.6603 8.02568 12.6684 7.93836C12.6764 7.85104 12.7016 7.76617 12.7425 7.68861C12.7834 7.61104 12.8392 7.54231 12.9067 7.48634C13.0267 7.38695 13.1776 7.3327 13.3334 7.33301C13.4314 7.33285 13.5281 7.35427 13.6168 7.39575C13.7056 7.43723 13.7841 7.49775 13.8467 7.57301L17.1801 11.573C17.2025 11.6048 17.2226 11.6382 17.2401 11.673C17.2455 11.6867 17.2544 11.6981 17.2629 11.7091C17.2751 11.725 17.2867 11.74 17.2867 11.7597C17.317 11.8361 17.3328 11.9175 17.3334 11.9997C17.3328 12.0819 17.317 12.1632 17.2867 12.2397C17.2813 12.2533 17.2725 12.2648 17.2639 12.2758C17.2517 12.2916 17.2401 12.3067 17.2401 12.3263C17.2226 12.3611 17.2025 12.3945 17.1801 12.4263L13.8467 16.4263C13.7336 16.5625 13.571 16.6481 13.3947 16.6644C13.2184 16.6806 13.0429 16.6262 12.9067 16.513C12.7706 16.3999 12.685 16.2372 12.6687 16.061C12.6607 15.9737 12.6699 15.8857 12.6959 15.8019C12.7218 15.7182 12.7641 15.6404 12.8201 15.573L15.2401 12.6663Z" />
        </g>
        <g id="Invisible_Shape">
            <rect fill="none" stroke="none" width="24" height="24"></rect>
        </g>
    </symbol>
    <symbol id="check" viewBox="0 0 24 24">
        <g>
            <path d="M12 24C18.6274 24 24 18.6274 24 12C24 5.37258 18.6274 0 12 0C5.37258 0 0 5.37258 0 12C0 18.6274 5.37258 24 12 24Z" fill="white"/>
            <path d="M7.09429 10.8957L10.001 13.3157L10.6032 13.9087L11.3343 13.3157L17.0605 8.15453C17.1278 8.09833 17.2056 8.05613 17.2894 8.03003C17.3731 8.00403 17.4611 7.99473 17.5485 8.00283C17.6358 8.01083 17.7207 8.03603 17.7982 8.07693C17.8758 8.11783 17.9445 8.17363 18.0005 8.24113C18.0999 8.36113 18.1541 8.51203 18.1538 8.66783C18.154 8.76583 18.1326 8.86253 18.0911 8.95123C18.0496 9.04003 17.9891 9.11853 17.9138 9.18113L11.0943 15.2557C11.0625 15.2781 11.0291 15.2982 10.9943 15.3157C10.961 15.329 10.941 15.3623 10.9076 15.3623C10.8312 15.3926 10.7498 15.4084 10.6676 15.409C10.5854 15.4084 10.5041 15.3926 10.4276 15.3623C10.3943 15.349 10.3743 15.3157 10.341 15.3157C10.3062 15.2982 10.2728 15.2781 10.241 15.2557L6.24099 11.9223C6.10479 11.8092 6.01919 11.6466 6.00289 11.4703C5.98669 11.294 6.04109 11.1185 6.15429 10.9823C6.26739 10.8462 6.43009 10.7606 6.60629 10.7443C6.69359 10.7363 6.78159 10.7455 6.86539 10.7715C6.94909 10.7974 7.02689 10.8397 7.09429 10.8957Z" fill="#0540FF"/>
        </g>
        <g id="Invisible_Shape">
            <rect fill="none" stroke="none" width="24" height="24"></rect>
        </g>
    </symbol>
    <symbol id="discord-circle" viewBox="0 0 24 24">
        <g>
            <path fill-rule="evenodd" clip-rule="evenodd" d="M12 24C18.6274 24 24 18.6274 24 12C24 5.37258 18.6274 0 12 0C5.37258 0 0 5.37258 0 12C0 18.6274 5.37258 24 12 24ZM14.2879 6.00083C15.4313 6.19828 16.5248 6.54302 17.5446 7.01094C17.5534 7.01475 17.561 7.02111 17.5654 7.02998C19.3723 9.68765 20.2647 12.6856 19.931 16.1369C19.9298 16.1515 19.9222 16.1648 19.9102 16.1737C18.5417 17.1787 17.216 17.7889 15.9087 18.1933C15.8878 18.1997 15.8652 18.192 15.8525 18.1743C15.5505 17.754 15.2761 17.3108 15.0358 16.8454C15.022 16.8181 15.0346 16.7851 15.0629 16.7743C15.4987 16.6099 15.9131 16.4131 16.3117 16.1801C16.3432 16.1617 16.3451 16.1166 16.3161 16.095C16.2316 16.0321 16.1477 15.9661 16.0676 15.9001C16.0525 15.888 16.0323 15.8855 16.0152 15.8937C13.4276 17.0892 10.5928 17.0892 7.97429 15.8937C7.95726 15.8861 7.93707 15.8886 7.92258 15.9007C7.84249 15.9667 7.75859 16.0321 7.67471 16.095C7.64571 16.1166 7.64823 16.1617 7.67976 16.1801C8.07834 16.4086 8.49269 16.6099 8.92785 16.775C8.95622 16.7858 8.96947 16.8181 8.95559 16.8454C8.72037 17.3115 8.44602 17.7546 8.13826 18.1749C8.12501 18.192 8.10295 18.1997 8.08212 18.1933C6.78108 17.7889 5.45541 17.1787 4.08687 16.1737C4.07552 16.1648 4.06732 16.1509 4.06606 16.1363C3.78731 13.151 4.35553 10.1283 6.4298 7.02935C6.43482 7.02111 6.4424 7.01475 6.45123 7.01094C7.47165 6.54239 8.56521 6.19765 9.70797 6.00083C9.7288 5.99765 9.7496 6.00718 9.76032 6.02559C9.9016 6.27573 10.063 6.59636 10.1722 6.85856C11.3767 6.67445 12.6002 6.67445 13.83 6.85856C13.9391 6.60206 14.0949 6.27573 14.2355 6.02559C14.2462 6.00654 14.267 5.99702 14.2879 6.00083ZM7.90869 12.7059C7.90869 13.5948 8.55827 14.3186 9.34662 14.3186C10.1475 14.3186 10.7845 13.5948 10.7845 12.7059C10.7971 11.8234 10.1539 11.0933 9.34662 11.0933C8.54567 11.0933 7.90869 11.8171 7.90869 12.7059ZM13.2252 12.7059C13.2252 13.5948 13.8748 14.3186 14.6631 14.3186C15.4704 14.3186 16.101 13.5948 16.101 12.7059C16.1136 11.8234 15.4704 11.0933 14.6631 11.0933C13.8622 11.0933 13.2252 11.8171 13.2252 12.7059Z" fill="white"/>
        </g>
        <g id="Invisible_Shape">
            <rect fill="none" stroke="none" width="24" height="24"></rect>
        </g>
    </symbol>
    <symbol id="close" viewBox="0 0 24 24">
        <g>
            <path d="M13.4099 12.0002L17.7099 7.71019C17.8982 7.52188 18.004 7.26649 18.004 7.00019C18.004 6.73388 17.8982 6.47849 17.7099 6.29019C17.5216 6.10188 17.2662 5.99609 16.9999 5.99609C16.7336 5.99609 16.4782 6.10188 16.2899 6.29019L11.9999 10.5902L7.70994 6.29019C7.52164 6.10188 7.26624 5.99609 6.99994 5.99609C6.73364 5.99609 6.47824 6.10188 6.28994 6.29019C6.10164 6.47849 5.99585 6.73388 5.99585 7.00019C5.99585 7.26649 6.10164 7.52188 6.28994 7.71019L10.5899 12.0002L6.28994 16.2902C6.19621 16.3831 6.12182 16.4937 6.07105 16.6156C6.02028 16.7375 5.99414 16.8682 5.99414 17.0002C5.99414 17.1322 6.02028 17.2629 6.07105 17.3848C6.12182 17.5066 6.19621 17.6172 6.28994 17.7102C6.3829 17.8039 6.4935 17.8783 6.61536 17.9291C6.73722 17.9798 6.86793 18.006 6.99994 18.006C7.13195 18.006 7.26266 17.9798 7.38452 17.9291C7.50638 17.8783 7.61698 17.8039 7.70994 17.7102L11.9999 13.4102L16.2899 17.7102C16.3829 17.8039 16.4935 17.8783 16.6154 17.9291C16.7372 17.9798 16.8679 18.006 16.9999 18.006C17.132 18.006 17.2627 17.9798 17.3845 17.9291C17.5064 17.8783 17.617 17.8039 17.7099 17.7102C17.8037 17.6172 17.8781 17.5066 17.9288 17.3848C17.9796 17.2629 18.0057 17.1322 18.0057 17.0002C18.0057 16.8682 17.9796 16.7375 17.9288 16.6156C17.8781 16.4937 17.8037 16.3831 17.7099 16.2902L13.4099 12.0002Z" fill="white"/>
        </g>
        <g id="Invisible_Shape">
            <rect fill="none" stroke="none" width="24" height="24"></rect>
        </g>
    </symbol>
    <symbol id="twitter" viewBox="0 0 24 24">
        <g>
            <path d="M21.5577 6.83758C22.4971 6.13307 23.3425 5.28767 24 4.30137C23.1546 4.67711 22.1683 4.95891 21.182 5.05284C22.2153 4.44227 22.9668 3.50293 23.3425 2.32877C22.4032 2.89237 21.3229 3.31506 20.2427 3.5499C19.3033 2.5636 18.0352 2 16.6263 2C13.9022 2 11.6948 4.20744 11.6948 6.93151C11.6948 7.30725 11.7417 7.68298 11.8356 8.05871C7.74952 7.82389 4.08611 5.85127 1.64383 2.89237C1.22114 3.59687 0.986302 4.44228 0.986302 5.38161C0.986302 7.07242 1.8317 8.57535 3.19374 9.46772C2.3953 9.42075 1.59687 9.23288 0.939336 8.85715V8.90412C0.939336 11.2994 2.63014 13.2721 4.88455 13.7417C4.50881 13.8357 4.03914 13.9295 3.61644 13.9295C3.28767 13.9295 3.00587 13.8825 2.6771 13.8357C3.28767 15.8082 5.11937 17.2173 7.27985 17.2642C5.58904 18.5793 3.47554 19.3777 1.17416 19.3777C0.751469 19.3777 0.375734 19.3308 0 19.2838C2.16047 20.6928 4.74364 21.4912 7.56165 21.4912C16.6263 21.4912 21.5577 14.0235 21.5577 7.49511C21.5577 7.26027 21.5577 7.07241 21.5577 6.83758Z" fill="white"/>
        </g>
        <g id="Invisible_Shape">
            <rect fill="none" stroke="none" width="24" height="24"></rect>
        </g>
    </symbol>
    <symbol id="telegram" viewBox="0 0 24 24">
        <g>
            <path fill-rule="evenodd" clip-rule="evenodd" d="M18.3844 21.7791C18.7064 22.0071 19.1214 22.0641 19.4914 21.9241C19.8614 21.7831 20.1334 21.4671 20.2154 21.0841C21.0844 17.0001 23.1924 6.66315 23.9834 2.94815C24.0434 2.66815 23.9434 2.37715 23.7234 2.19015C23.5034 2.00315 23.1984 1.94915 22.9264 2.05015C18.7334 3.60215 5.8204 8.44715 0.542398 10.4002C0.207398 10.5242 -0.0106021 10.8462 0.000397851 11.1992C0.0123979 11.5532 0.250398 11.8602 0.593398 11.9632C2.9604 12.6711 6.0674 13.6561 6.0674 13.6561C6.0674 13.6561 7.5194 18.0411 8.2764 20.2711C8.3714 20.5511 8.5904 20.7711 8.8794 20.8471C9.1674 20.9221 9.4754 20.8431 9.6904 20.6401C10.9064 19.4921 12.7864 17.7171 12.7864 17.7171C12.7864 17.7171 16.3584 20.3361 18.3844 21.7791ZM7.3744 13.1021L9.0534 18.6401L9.4264 15.1331C9.4264 15.1331 15.9134 9.28215 19.6114 5.94715C19.7194 5.84915 19.7344 5.68515 19.6444 5.57015C19.5554 5.45515 19.3914 5.42815 19.2684 5.50615C14.9824 8.24315 7.3744 13.1021 7.3744 13.1021Z" fill="white"/>
        </g>
        <g id="Invisible_Shape">
            <rect fill="none" stroke="none" width="24" height="24"></rect>
        </g>
    </symbol>
    <symbol id="medium" viewBox="0 0 24 24">
        <g>
            <path d="M2.84594 5.88686C2.87576 5.59224 2.7634 5.30105 2.54342 5.10277L0.302521 2.40325V2H7.26051L12.6387 13.795L17.367 2H24V2.40325L22.0841 4.24026C21.9189 4.36617 21.8369 4.57311 21.8711 4.77792V18.2755C21.8369 18.4803 21.9189 18.6872 22.0841 18.8132L23.9552 20.6502V21.0534H14.5434V20.6502L16.4818 18.7684C16.6723 18.5779 16.6723 18.5219 16.6723 18.2307V7.32062L11.2829 21.0086H10.5546L4.28011 7.32062V16.4946C4.2278 16.8802 4.3559 17.2685 4.62745 17.5474L7.14846 20.6054V21.0086H0V20.6054L2.52101 17.5474C2.79059 17.268 2.91121 16.8771 2.84594 16.4946V5.88686Z" fill="white"/>
        </g>
        <g id="Invisible_Shape">
            <rect fill="none" stroke="none" width="24" height="24"></rect>
        </g>
    </symbol>
    <symbol id="linkedin" viewBox="0 0 24 24">
        <g>
            <path d="M22.2857 0H1.66071C0.75 0 0 0.803566 0 1.76786V22.2857C0 23.2501 0.75 24 1.66071 24H22.2857C23.1965 24 24 23.2501 24 22.2857V1.76786C24 0.803566 23.1965 0 22.2857 0ZM7.23214 20.5714H3.69643V9.16071H7.23214V20.5714ZM5.46429 7.55358C4.28571 7.55358 3.37499 6.64286 3.37499 5.51785C3.37499 4.39286 4.28571 3.42857 5.46429 3.42857C6.58928 3.42857 7.5 4.39286 7.5 5.51785C7.5 6.64286 6.58928 7.55358 5.46429 7.55358ZM20.5714 20.5714H16.9822V15C16.9822 13.7143 16.9822 12 15.1607 12C13.2857 12 13.0178 13.4464 13.0178 14.9464V20.5714H9.48215V9.16071H12.8571V10.7143H12.9107C13.3929 9.80357 14.5714 8.83929 16.2857 8.83929C19.875 8.83929 20.5714 11.2501 20.5714 14.3035V20.5714Z" fill="white"/>
        </g>
        <g id="Invisible_Shape">
            <rect fill="none" stroke="none" width="24" height="24"></rect>
        </g>
    </symbol>
    <symbol id="discord" viewBox="0 0 24 24">
        <g>
            <path d="M20.317 4.51641C18.7873 3.81453 17.147 3.29742 15.4319 3.00124C15.4007 2.99553 15.3695 3.00981 15.3534 3.03838C15.1424 3.4136 14.9087 3.9031 14.7451 4.28784C12.9004 4.01167 11.0652 4.01167 9.25832 4.28784C9.09465 3.89454 8.85248 3.4136 8.64057 3.03838C8.62449 3.01076 8.59328 2.99648 8.56205 3.00124C6.84791 3.29647 5.20756 3.81358 3.67694 4.51641C3.66368 4.52213 3.65233 4.53166 3.64479 4.54403C0.533392 9.19239 -0.31895 13.7265 0.09918 18.2044C0.101072 18.2263 0.11337 18.2473 0.130398 18.2606C2.18321 19.7681 4.17171 20.6833 6.12328 21.2899C6.15451 21.2995 6.18761 21.2881 6.20748 21.2623C6.66913 20.6319 7.08064 19.9672 7.43348 19.2681C7.4543 19.2272 7.43442 19.1786 7.39186 19.1624C6.73913 18.9148 6.1176 18.6129 5.51973 18.2701C5.47244 18.2425 5.46865 18.1748 5.51216 18.1425C5.63797 18.0482 5.76382 17.9501 5.88396 17.8511C5.90569 17.833 5.93598 17.8291 5.96153 17.8406C9.88928 19.6338 14.1415 19.6338 18.023 17.8406C18.0485 17.8282 18.0788 17.832 18.1015 17.8501C18.2216 17.9491 18.3475 18.0482 18.4742 18.1425C18.5177 18.1748 18.5149 18.2425 18.4676 18.2701C17.8697 18.6196 17.2482 18.9148 16.5945 19.1615C16.552 19.1777 16.533 19.2272 16.5538 19.2681C16.9143 19.9662 17.3258 20.6309 17.7789 21.2614C17.7978 21.2881 17.8319 21.2995 17.8631 21.2899C19.8241 20.6833 21.8126 19.7681 23.8654 18.2606C23.8834 18.2473 23.8948 18.2272 23.8967 18.2053C24.3971 13.0284 23.0585 8.53148 20.3482 4.54498C20.3416 4.53166 20.3303 4.52213 20.317 4.51641ZM8.02002 15.4778C6.8375 15.4778 5.86313 14.3922 5.86313 13.0589C5.86313 11.7256 6.8186 10.64 8.02002 10.64C9.23087 10.64 10.1958 11.7351 10.1769 13.0589C10.1769 14.3922 9.22141 15.4778 8.02002 15.4778ZM15.9947 15.4778C14.8123 15.4778 13.8379 14.3922 13.8379 13.0589C13.8379 11.7256 14.7933 10.64 15.9947 10.64C17.2056 10.64 18.1705 11.7351 18.1516 13.0589C18.1516 14.3922 17.2056 15.4778 15.9947 15.4778Z" fill="white"/>
        </g>
        <g id="Invisible_Shape">
            <rect fill="none" stroke="none" width="24" height="24"></rect>
        </g>
    </symbol>
    <symbol id="email" viewBox="0 0 24 24">
        <g>
            <rect class="a" x="0.75" y="4.5" width="22.5" height="15" rx="1.5" ry="1.5"></rect>
            <line class="a" x1="15.687" y1="9.975" x2="19.5" y2="13.5"></line>
            <line class="a" x1="8.313" y1="9.975" x2="4.5" y2="13.5"></line>
            <path class="a" d="M22.88,5.014l-9.513,6.56a2.406,2.406,0,0,1-2.734,0L1.12,5.014"></path>
        </g>
        <g id="Invisible_Shape">
            <rect fill="none" stroke="none" width="24" height="24"></rect>
        </g>
    </symbol>
    <symbol id="code" viewBox="0 0 24 24">
        <g>
            <path class="a" d="M9,12.75H2.25a1.5,1.5,0,0,1-1.5-1.5v-9A1.5,1.5,0,0,1,2.25.75h18a1.5,1.5,0,0,1,1.5,1.5v9a1.5,1.5,0,0,1-1.5,1.5"></path>
            <path class="a" d="M13.1,13.461,16,22.723a.751.751,0,0,0,1.218.334L18.75,18.75l4.252-.9a.75.75,0,0,0-.185-1.237l-8.683-4.053A.75.75,0,0,0,13.1,13.461Z"></path>
            <path class="a" d="M5.25,6.375a.375.375,0,1,1-.375.375.374.374,0,0,1,.375-.375"></path>
            <path class="a" d="M11.25,6.375a.375.375,0,1,1-.375.375.374.374,0,0,1,.375-.375"></path>
            <path class="a" d="M17.25,6.375a.375.375,0,1,1-.375.375.374.374,0,0,1,.375-.375"></path>
        </g>
        <g id="Invisible_Shape">
            <rect fill="none" stroke="none" width="24" height="24"></rect>
        </g>
    </symbol>
    <symbol id="success" viewBox="0 0 24 24">
        <g>
            <path fill="none" class="a" d="M23.25,4.249,11.808,19.505a1.5,1.5,0,0,1-2.261.161L6.57,16.689"></path>
            <path fill="none" class="a" d="M6,19.76a1.5,1.5,0,0,1-2.133.012L.89,16.8"></path>
            <line fill="none" class="a" x1="17.43" y1="4.355" x2="9.29" y2="15.209"></line>
        </g>
        <g id="Invisible_Shape">
            <rect fill="none" stroke="none" width="24" height="24"></rect>
        </g>
    </symbol>
    <symbol id="error" viewBox="0 0 24 24">
        <g>
            <line class="a" x1="0.75" y1="23.249" x2="23.25" y2="0.749"></line>
            <line class="a" x1="23.25" y1="23.249" x2="0.75" y2="0.749"></line>
        </g>
        <g id="Invisible_Shape">
            <rect fill="none" stroke="none" width="24" height="24"></rect>
        </g>
    </symbol>
    <symbol id="warning" viewBox="0 0 24 24">
        <g>
            <path fill="none" class="a" d="M12,16.5a.375.375,0,1,0,.375.375A.375.375,0,0,0,12,16.5h0"></path>
            <line fill="none" class="b" x1="12" y1="13.5" x2="12" y2="6"></line>
            <path fill="none" class="a" d="M1.28,13.281a1.812,1.812,0,0,1,0-2.561l9.44-9.439a1.808,1.808,0,0,1,2.56,0l9.44,9.439a1.812,1.812,0,0,1,0,2.561L13.28,22.72a1.811,1.811,0,0,1-2.56,0Z"></path>
        </g>
        <g id="Invisible_Shape">
            <rect fill="none" stroke="none" width="24" height="24"></rect>
        </g>
    </symbol>
    <symbol id="info" viewBox="0 0 24 24">
        <g>
            <path fill="none" class="a" d="M14.25,16.5H13.5A1.5,1.5,0,0,1,12,15V11.25a.75.75,0,0,0-.75-.75H10.5"></path>
            <path fill="none" class="a" d="M11.625,6.75A.375.375,0,1,0,12,7.125a.375.375,0,0,0-.375-.375h0"></path>
            <circle fill="none" class="a" cx="12" cy="12" r="11.25"></circle>
        </g>
        <g id="Invisible_Shape">
            <rect fill="none" stroke="none" width="24" height="24"></rect>
        </g>
    </symbol>
    <symbol id="sign" viewBox="0 0 24 24">
        <g>
            <path fill="none" class="a" d="M9.164,13.293a2.3,2.3,0,0,1,3.211-.092,2.3,2.3,0,0,1-.092,3.21c-.881.883-4.752,1.632-4.752,1.632S8.283,14.174,9.164,13.293Z"></path>
            <path fill="none" class="a" d="M12.73,5.568l3.639-3.639a1.47,1.47,0,0,1,2.079,0l1.04,1.04"></path>
            <path fill="none" class="a" d="M11.17,11.286l8.318-8.317a2.211,2.211,0,0,1,3.119,0h0a2.213,2.213,0,0,1,0,3.119l-8.318,8.317Z"></path>
            <line fill="none" class="a" x1="16.369" y1="6.088" x2="19.488" y2="9.207"></line>
            <path fill="none" class="a" d="M21.22,13.5c0,4.041.425,6.325-1.758,8.508L18.33,23.139a.378.378,0,0,1-.266.109H1.125a.375.375,0,0,1-.265-.64l.6-.6C3.725,19.743,3.22,18.294,3.22,6.234c0-3.148,2.348-4.834,3-5.486h4.448"></path>
        </g>
        <g id="Invisible_Shape">
            <rect fill="none" stroke="none" width="24" height="24"></rect>
        </g>
    </symbol>
    <symbol id="help" viewBox="0 0 24 24">
        <g>
            <path fill="none" class="a" d="M4.5,18H3.75a3,3,0,0,1-3-3V12a3,3,0,0,1,3-3H4.5a.75.75,0,0,1,.75.75v7.5A.75.75,0,0,1,4.5,18Z"></path>
            <path fill="none" class="a" d="M20.25,18H19.5a.75.75,0,0,1-.75-.75V9.75A.75.75,0,0,1,19.5,9h.75a3,3,0,0,1,3,3v3A3,3,0,0,1,20.25,18Z"></path>
            <path fill="none" class="a" d="M3.75,9A8.25,8.25,0,0,1,12,.75h0A8.25,8.25,0,0,1,20.25,9"></path>
            <path fill="none" class="a" d="M15,21.75h2.25a3,3,0,0,0,3-3h0V18"></path>
            <path fill="none" class="a" d="M13.5,23.25H12a1.5,1.5,0,0,1-1.5-1.5h0a1.5,1.5,0,0,1,1.5-1.5h1.5a1.5,1.5,0,0,1,1.5,1.5h0A1.5,1.5,0,0,1,13.5,23.25Z"></path>
        </g>
        <g id="Invisible_Shape">
            <rect fill="none" stroke="none" width="24" height="24"></rect>
        </g>
    </symbol>
    <symbol id="money" viewBox="0 0 24 24">
        <g>
            <ellipse fill="none" class="a" cx="6.75" cy="3.75" rx="6" ry="3"></ellipse>
            <path fill="none" class="a" d="M12.75,6.75c0,1.657-2.686,3-6,3s-6-1.343-6-3"></path>
            <line fill="none" class="a" x1="12.75" y1="9.75" x2="12.75" y2="3.75"></line>
            <path fill="none" class="a" d="M.75,3.75v15c0,1.657,2.686,3,6,3A11.284,11.284,0,0,0,9,21.527"></path>
            <path fill="none" class="a" d="M.75,15.75c0,1.657,2.686,3,6,3A11.284,11.284,0,0,0,9,18.527"></path>
            <path fill="none" class="a" d="M.75,12.75c0,1.657,2.686,3,6,3A11.284,11.284,0,0,0,9,15.527"></path>
            <path fill="none" class="a" d="M.75,9.75c0,1.657,2.686,3,6,3A11.284,11.284,0,0,0,9,12.527"></path>
            <ellipse fill="none" class="a" cx="17.25" cy="14.25" rx="6" ry="3"></ellipse>
            <path fill="none" class="a" d="M11.25,14.25v6c0,1.657,2.686,3,6,3s6-1.343,6-3v-6"></path>
            <path fill="none" class="a" d="M23.25,17.25c0,1.657-2.686,3-6,3s-6-1.343-6-3"></path>
        </g>
        <g id="Invisible_Shape">
            <rect fill="none" stroke="none" width="24" height="24"></rect>
        </g>
    </symbol>
    <symbol id="scissors" viewBox="0 0 24 24">
        <g>
            <circle fill="none" class="a" cx="4.5" cy="19.499" r="3.75"></circle>
            <circle fill="none" class="a" cx="4.5" cy="4.499" r="3.75"></circle>
            <line fill="none" class="a" x1="23.25" y1="20.249" x2="2.25" y2="7.499"></line>
            <line fill="none" class="a" x1="23.25" y1="3.749" x2="2.25" y2="16.499"></line>
        </g>
        <g id="Invisible_Shape">
            <rect fill="none" stroke="none" width="24" height="24"></rect>
        </g>
    </symbol>
    <symbol id="XXX" viewBox="0 0 24 24">
        <g>

        </g>
        <g id="Invisible_Shape">
            <rect fill="none" stroke="none" width="24" height="24"></rect>
        </g>
    </symbol>

</svg>